<svg width="2500" height="2500" viewBox="0 0 2500 2500" fill="none" xmlns="http://www.w3.org/2000/svg">
<path d="M419.5 180.5L166.5 229.5C225.667 614.5 346.3 1392.8 355.5 1426C364.7 1459.2 500 2056.5 566.5 2351L1540.5 2328L2295.5 2279L2325.5 2101.5V769L2295.5 546.5L2016 252L1688 89.5L1189.5 123.5L419.5 180.5Z" fill="white" stroke="black"/>
<path fill-rule="evenodd" clip-rule="evenodd" d="M468.479 444.905C545.836 507.754 574.856 502.959 720.122 493.266L2089.6 411.036C2118.64 411.036 2094.49 382.06 2084.8 377.245L1857.36 212.823C1813.78 178.988 1755.72 140.241 1644.44 149.934L318.378 246.653C270.017 251.448 260.358 275.629 279.616 295.01L468.479 444.905ZM550.7 764.061V2204.99C550.7 2282.43 589.398 2311.4 676.497 2306.61L2181.55 2219.52C2268.69 2214.73 2278.4 2161.46 2278.4 2098.55V667.298C2278.4 604.492 2254.24 570.624 2200.9 575.458L628.101 667.298C570.056 672.176 550.695 701.211 550.695 764.061H550.7ZM207.04 116.104L1586.36 14.5271C1755.74 -4.00543e-05 1799.32 9.73199 1905.78 87.0648L2346.08 396.528C2418.73 449.744 2442.94 464.232 2442.94 522.242V2219.52C2442.94 2325.89 2404.19 2388.8 2268.72 2398.42L666.912 2495.15C565.212 2500 516.811 2485.51 463.552 2417.77L139.312 1997.08C81.2178 1919.64 57.0565 1861.71 57.0565 1793.94V285.282C57.0565 198.296 95.8183 125.734 207.04 116.104Z" fill="black"/>
<path d="M1948.95 1032.55C1813.71 936.357 1606.24 928.365 1597.43 928.026C1583.58 927.512 1570.82 935.699 1565.74 948.217C1565.39 948.977 1561.86 957.87 1557.91 971.84C1557.41 973.603 1558.6 975.386 1560.42 975.606C1646.83 986.081 1752.75 1009.92 1850.12 1062.84C1865.91 1071.41 1871.53 1090.87 1862.66 1106.29C1856.92 1116.3 1846.39 1122.12 1835.41 1122.61C1829.51 1122.88 1823.47 1121.61 1817.9 1118.59C1648.33 1026.54 1441.82 1030.79 1402.16 1032.57C1362.49 1034.35 1156.36 1048.61 995.855 1155.47C980.833 1165.5 960.449 1161.74 950.171 1147.23C939.891 1132.67 943.815 1112.85 958.768 1102.83C1051.02 1041.48 1154.3 1008.18 1239.49 990.007C1241.28 989.624 1242.31 987.735 1241.65 986.022C1236.41 972.417 1232.1 963.931 1231.75 963.203C1225.5 951.192 1212.11 944.045 1198.31 946C1189.63 947.057 983.707 973.597 855.907 1083.06C789.519 1148.23 667.536 1517.61 681.623 1831.59C681.872 1837.12 683.627 1842.52 686.656 1847.19C789.418 2005.76 1051.69 2036.74 1111.13 2035.95C1111.48 2035.93 1111.82 2035.92 1112.16 2035.9C1122.66 2035.43 1132.33 2030.12 1138.13 2021.58L1192.04 1942.48C1193.25 1940.71 1192.22 1938.27 1190.12 1937.83C1029.32 1904.17 945.042 1840.04 940.102 1836.22C925.991 1825.16 923.784 1805.09 935.201 1791.35C946.617 1777.61 967.216 1775.42 981.324 1786.41C983.392 1788.05 1141.3 1906.75 1440.78 1893.31C1740.8 1879.85 1887.42 1746.96 1888.87 1745.62C1901.95 1733.55 1922.72 1733.82 1935.26 1746.55C1947.79 1759.21 1947.39 1779.34 1934.39 1791.54C1929.81 1795.85 1851.62 1867.21 1694.47 1915.14C1692.42 1915.76 1691.62 1918.28 1692.98 1919.94L1753.75 1993.89C1760.3 2001.88 1770.4 2006.3 1780.9 2005.83C1781.24 2005.81 1781.59 2005.8 1781.93 2005.78C1841.21 2001.32 2099.65 1946.98 2187.8 1779.77C2190.33 1774.85 2191.6 1769.38 2191.35 1763.85C2177.26 1449.87 2022.69 1092.9 1948.95 1032.55ZM1217.41 1679.77C1154 1682.61 1099.97 1627.79 1096.82 1557.4C1093.66 1487 1142.49 1427.57 1205.97 1424.72C1269.45 1421.87 1323.41 1476.69 1326.57 1547.09C1329.73 1617.48 1280.89 1676.92 1217.41 1679.77ZM1644.12 1660.62C1580.71 1663.47 1526.68 1608.65 1523.52 1538.25C1520.36 1467.86 1569.2 1408.42 1632.67 1405.57C1696.08 1402.73 1750.11 1457.55 1753.27 1527.94C1756.43 1598.34 1707.52 1657.78 1644.12 1660.62Z" fill="black"/>
</svg>
